# xmcd CD database file
#
# Track frame offsets:
#	187
#	22577
#	42824
#	60977
#	84075
#	98597
#	120190
#	147187
#
# Disc length: 2212 seconds
#
# Revision: 2
# Processed by: cddbd v1.5.1PL0 Copyright (c) Steve Scherf et al.
# Submitted via: CDex 1.51
#
DISCID=4708a208
DTITLE=浜田麻里 - MISTY LADY〜The First Period
DYEAR=1984
DGENRE=Japanese Rock
TTITLE0=Paradise
TTITLE1=Sweet Lie
TTITLE2=Heart Line
TTITLE3=Passing Over
TTITLE4=Fly On Wings
TTITLE5=Misty Lady
TTITLE6=More Fine Feeling
TTITLE7=Turning Point
EXTD=YEAR: 1984
EXTT0=
EXTT1=
EXTT2=
EXTT3=
EXTT4=
EXTT5=
EXTT6=
EXTT7=
PLAYORDER=
